# xmcd CD database file
#
# Track frame offsets:
#	150
#	16873
#	31241
#	44791
#	64348
#	77297
#	89917
#	101568
#	116082
#	130849
#	143942
#	162655
#	185266
#	216993
#	233243
#
# Disc length: 3407 seconds
#
# Revision: 0
# Processed by: cddbd v1.4b42PL1 Copyright (c) Steve Scherf et al.
# Submitted via: CDex 1.40Beta8
#
DISCID=d80d4d0f
DTITLE=West Songer - CountryDerry Vo.1 [D]
DYEAR=2001
DGENRE=Country
TTITLE0=Love thing
TTITLE1=Take me home country roads
TTITLE2=Sanfranisco
TTITLE3=Endless love
TTITLE4=Midnight rider
TTITLE5=500 miles
TTITLE6=Rose rose I love you
TTITLE7=Hillbilly fever
TTITLE8=Call me up
TTITLE9=Rosegarden
TTITLE10=Asies mi amor
TTITLE11=Yo me enamore
TTITLE12=This masquerade
TTITLE13=Unchained melody
TTITLE14=Oye luna
EXTD=YEAR: 2001 ID3G: 2
EXTT0=
EXTT1=
EXTT2=
EXTT3=
EXTT4=
EXTT5=
EXTT6=
EXTT7=
EXTT8=
EXTT9=
EXTT10=
EXTT11=
EXTT12=
EXTT13=
EXTT14=
PLAYORDER=
